<?xml version="1.0" encoding="UTF-8" standalone="no"?>
<!-- Created with Inkscape (http://www.inkscape.org/) -->

<svg
   width="48.448399mm"
   height="11.90625mm"
   viewBox="0 0 48.448399 11.90625"
   version="1.1"
   id="svg1"
   xml:space="preserve"
   inkscape:version="1.3 (0e150ed6c4, 2023-07-21)"
   sodipodi:docname="drawing.svg"
   xmlns:inkscape="http://www.inkscape.org/namespaces/inkscape"
   xmlns:sodipodi="http://sodipodi.sourceforge.net/DTD/sodipodi-0.dtd"
   xmlns="http://www.w3.org/2000/svg"
   xmlns:svg="http://www.w3.org/2000/svg"><sodipodi:namedview
     id="namedview1"
     pagecolor="#ffffff"
     bordercolor="#000000"
     borderopacity="0.25"
     inkscape:showpageshadow="2"
     inkscape:pageopacity="0.0"
     inkscape:pagecheckerboard="0"
     inkscape:deskcolor="#d1d1d1"
     inkscape:document-units="mm"
     inkscape:zoom="2.2556397"
     inkscape:cx="1286.1096"
     inkscape:cy="353.1149"
     inkscape:window-width="1600"
     inkscape:window-height="829"
     inkscape:window-x="-8"
     inkscape:window-y="-8"
     inkscape:window-maximized="1"
     inkscape:current-layer="layer1" /><defs
     id="defs1" /><g
     inkscape:label="Layer 1"
     inkscape:groupmode="layer"
     id="layer1"
     transform="translate(-305.14918,-96.732938)"><g
       id="g10"
       transform="matrix(0.24658856,0,0,0.24658856,237.42325,68.88888)"><path
         id="path10-4-5"
         style="fill:#000000;stroke:none;stroke-width:0.328059"
         d="m 301.79208,112.91731 a 24.141907,24.141907 0 0 1 3.43596,0.24547 24.141907,24.141907 0 0 1 3.36569,0.73225 24.141907,24.141907 0 0 1 3.22719,1.20355 24.141907,24.141907 0 0 1 3.02359,1.65106 24.141907,24.141907 0 0 1 2.75745,2.06395 24.141907,24.141907 0 0 1 2.43551,2.43603 24.141907,24.141907 0 0 1 2.06396,2.75746 24.141907,24.141907 0 0 1 1.65106,3.02307 24.141907,24.141907 0 0 1 1.20354,3.22719 24.141907,24.141907 0 0 1 0.73226,3.36569 24.141907,24.141907 0 0 1 0.24598,3.43596 24.141907,24.141907 0 0 1 -0.24598,3.43597 24.141907,24.141907 0 0 1 -0.73226,3.36568 24.141907,24.141907 0 0 1 -1.20354,3.2272 24.141907,24.141907 0 0 1 -1.65106,3.02307 24.141907,24.141907 0 0 1 -2.06396,2.75745 24.141907,24.141907 0 0 1 -2.43551,2.43603 24.141907,24.141907 0 0 1 -2.75745,2.06396 24.141907,24.141907 0 0 1 -3.02359,1.65106 24.141907,24.141907 0 0 1 -3.22719,1.20354 24.141907,24.141907 0 0 1 -3.36569,0.73226 24.141907,24.141907 0 0 1 -3.43596,0.24546 z" /><path
         id="path5-8-1"
         style="fill:#000000;stroke:none;stroke-width:0.328059"
         d="m 298.79375,119.19264 a 17.86643,17.86643 0 0 0 -2.54248,0.1819 17.86643,17.86643 0 0 0 -2.4908,0.54158 17.86643,17.86643 0 0 0 -2.38849,0.8909 17.86643,17.86643 0 0 0 -2.23759,1.22163 17.86643,17.86643 0 0 0 -2.0407,1.52755 17.86643,17.86643 0 0 0 -1.80247,1.80248 17.86643,17.86643 0 0 0 -1.52756,2.0407 17.86643,17.86643 0 0 0 -1.22163,2.23759 17.86643,17.86643 0 0 0 -0.8909,2.38848 17.86643,17.86643 0 0 0 -0.54209,2.49081 17.86643,17.86643 0 0 0 -0.18138,2.54299 17.86643,17.86643 0 0 0 0.18138,2.54248 17.86643,17.86643 0 0 0 0.54209,2.49081 17.86643,17.86643 0 0 0 0.8909,2.38848 17.86643,17.86643 0 0 0 1.22163,2.23708 17.86643,17.86643 0 0 0 1.52756,2.0407 17.86643,17.86643 0 0 0 1.80299,1.80247 17.86643,17.86643 0 0 0 2.0407,1.52756 17.86643,17.86643 0 0 0 2.23707,1.22163 17.86643,17.86643 0 0 0 2.38849,0.8909 17.86643,17.86643 0 0 0 2.4908,0.54209 17.86643,17.86643 0 0 0 2.54248,0.1819 v -2.58021 a 15.285861,15.285861 0 0 1 -2.39107,-0.18862 15.285861,15.285861 0 0 1 -2.33215,-0.55965 15.285861,15.285861 0 0 1 -2.21641,-0.91778 15.285861,15.285861 0 0 1 -2.04483,-1.25367 15.285861,15.285861 0 0 1 -1.82418,-1.55752 15.285861,15.285861 0 0 1 -1.55753,-1.82418 15.285861,15.285861 0 0 1 -1.25315,-2.04484 15.285861,15.285861 0 0 1 -0.91829,-2.2164 15.285861,15.285861 0 0 1 -0.55966,-2.33216 15.285861,15.285861 0 0 1 -0.18862,-2.39107 15.285861,15.285861 0 0 1 0.18862,-2.39158 15.285861,15.285861 0 0 1 0.55966,-2.33216 15.285861,15.285861 0 0 1 0.91829,-2.21588 15.285861,15.285861 0 0 1 1.25315,-2.04536 15.285861,15.285861 0 0 1 1.55753,-1.82418 15.285861,15.285861 0 0 1 1.82418,-1.55752 15.285861,15.285861 0 0 1 2.04483,-1.25316 15.285861,15.285861 0 0 1 2.21641,-0.91828 15.285861,15.285861 0 0 1 2.33215,-0.55966 15.285861,15.285861 0 0 1 2.39107,-0.1881 z" /><path
         id="path7-0-1"
         style="fill:#000000;stroke:none;stroke-width:0.328059"
         d="m 298.79375,112.91706 a 24.141903,24.141903 0 0 0 -3.43544,0.24546 24.141903,24.141903 0 0 0 -3.36621,0.73226 24.141903,24.141903 0 0 0 -3.22719,1.20354 24.141903,24.141903 0 0 0 -3.02307,1.65106 24.141903,24.141903 0 0 0 -2.75797,2.06396 24.141903,24.141903 0 0 0 -2.43551,2.43603 24.141903,24.141903 0 0 0 -2.06448,2.75745 24.141903,24.141903 0 0 0 -1.65054,3.02307 24.141903,24.141903 0 0 0 -1.20355,3.22771 24.141903,24.141903 0 0 0 -0.73225,3.36568 24.141903,24.141903 0 0 0 -0.24598,3.43597 24.141903,24.141903 0 0 0 0.24598,3.43545 24.141903,24.141903 0 0 0 0.73225,3.3662 24.141903,24.141903 0 0 0 1.20355,3.22719 24.141903,24.141903 0 0 0 1.65106,3.02308 24.141903,24.141903 0 0 0 2.06396,2.75745 24.141903,24.141903 0 0 0 2.43602,2.43551 24.141903,24.141903 0 0 0 2.75746,2.06447 24.141903,24.141903 0 0 0 3.02307,1.65055 24.141903,24.141903 0 0 0 3.22719,1.20406 24.141903,24.141903 0 0 0 3.36621,0.73174 24.141903,24.141903 0 0 0 3.43544,0.24598 v -2.75642 a 21.385387,21.385387 0 0 1 -3.34501,-0.26355 21.385387,21.385387 0 0 1 -3.26337,-0.78342 21.385387,21.385387 0 0 1 -3.10007,-1.28416 21.385387,21.385387 0 0 1 -2.86132,-1.75338 21.385387,21.385387 0 0 1 -2.55178,-2.17919 21.385387,21.385387 0 0 1 -2.1792,-2.55179 21.385387,21.385387 0 0 1 -1.75338,-2.86132 21.385387,21.385387 0 0 1 -1.28416,-3.10007 21.385387,21.385387 0 0 1 -0.78341,-3.26337 21.385387,21.385387 0 0 1 -0.26355,-3.34501 21.385387,21.385387 0 0 1 0.26355,-3.34553 21.385387,21.385387 0 0 1 0.78341,-3.26285 21.385387,21.385387 0 0 1 1.28416,-3.10059 21.385387,21.385387 0 0 1 1.75286,-2.86132 21.385387,21.385387 0 0 1 2.17972,-2.55179 21.385387,21.385387 0 0 1 2.55178,-2.17919 21.385387,21.385387 0 0 1 2.86132,-1.75389 21.385387,21.385387 0 0 1 3.10007,-1.28416 21.385387,21.385387 0 0 1 3.26285,-0.78342 21.385387,21.385387 0 0 1 3.34553,-0.26303 z" /></g><text
       xml:space="preserve"
       style="font-style:normal;font-variant:normal;font-weight:bold;font-stretch:normal;font-size:5.82587px;font-family:'Century Gothic';-inkscape-font-specification:'Century Gothic, Bold';font-variant-ligatures:normal;font-variant-caps:normal;font-variant-numeric:normal;font-variant-east-asian:normal;text-align:center;text-anchor:middle;opacity:1;fill:#000000;stroke:none;stroke-width:0.0952415"
       x="336.06165"
       y="104.83094"
       id="text10"><tspan
         sodipodi:role="line"
         id="tspan10"
         style="font-style:normal;font-variant:normal;font-weight:bold;font-stretch:normal;font-size:5.82587px;font-family:'Century Gothic';-inkscape-font-specification:'Century Gothic, Bold';font-variant-ligatures:normal;font-variant-caps:normal;font-variant-numeric:normal;font-variant-east-asian:normal;stroke-width:0.0952415"
         x="336.06165"
         y="104.83094">content dive</tspan></text></g></svg>
